<svg width="80" height="80" viewBox="0 0 80 80" fill="none" xmlns="http://www.w3.org/2000/svg">
<path fill-rule="evenodd" clip-rule="evenodd" d="M75 62C74.4486 62 74 61.5514 74 61C74 60.4486 74.4486 60 75 60C75.5514 60 76 60.4486 76 61C76 61.5514 75.5514 62 75 62Z" fill="#CACAFB"/>
<path fill-rule="evenodd" clip-rule="evenodd" d="M55 4C54.4486 4 54 3.5514 54 3C54 2.44855 54.4486 2 55 2C55.5514 2 56 2.44855 56 3C56 3.5514 55.5514 4 55 4Z" fill="#CACAFB"/>
<path fill-rule="evenodd" clip-rule="evenodd" d="M3 54C2.4486 54 2 53.5514 2 53C2 52.4486 2.4486 52 3 52C3.5514 52 4 52.4486 4 53C4 53.5514 3.5514 54 3 54Z" fill="#CACAFB"/>
<path fill-rule="evenodd" clip-rule="evenodd" d="M50 53C51.8856 53 53 54.1144 53 56C53 56.0818 52.99 56.1632 52.9701 56.2425C52.4648 58.2639 50.2178 59.5777 46.2082 60.302L45.5605 60.4115C45.3397 60.4464 45.114 60.4796 44.8835 60.5113L44.1771 60.6015C44.0569 60.6158 43.9355 60.6296 43.8129 60.6431L43.0625 60.7191L42.2827 60.7858L41.4735 60.8432L40.6349 60.8916C40.4926 60.8989 40.3492 60.9058 40.2045 60.9123L39.3218 60.9472L38.4096 60.9732L37.4679 60.9904L36 61C35.4477 61 35 60.5523 35 60C35 59.4477 35.4477 59 36 59L36.95 58.9957C37.1058 58.9942 37.2603 58.9924 37.4135 58.9903L38.3174 58.9732L39.1906 58.9477L40.033 58.9139L40.8447 58.8721L41.6255 58.8222L42.3755 58.7644L43.0946 58.699C43.2119 58.6874 43.3279 58.6755 43.4426 58.6633L44.1154 58.5865C44.4441 58.5462 44.7612 58.5031 45.0667 58.4573L45.6622 58.3621L46.2267 58.2597L46.7603 58.1504C49.1778 57.6242 50.5824 56.8737 50.9638 55.9565L50.997 55.865L50.9903 55.7471C50.944 55.2089 50.7218 55.0245 50.1321 55.0023L50 55C48.9612 55 47.8672 55.547 46.7071 56.7071C46.1045 57.3097 45.0928 56.9277 45.006 56.1136L45 56C45 55.219 44.781 55 44 55C42.9612 55 41.8672 55.547 40.7071 56.7071C40.3166 57.0976 39.6834 57.0976 39.2929 56.7071C38.9024 56.3166 38.9024 55.6834 39.2929 55.2929C40.7994 53.7863 42.3721 53 44 53C45.1448 53 46.0054 53.4108 46.5048 54.1556L46.544 54.219L46.7396 54.0832C47.7168 53.4231 48.719 53.0587 49.7434 53.0065L50 53Z" fill="#E1000F"/>
<path d="M42 17C42.5523 17 43 17.4477 43 18C43 18.5128 42.614 18.9355 42.1166 18.9933L42 19H26C25.4477 19 25 18.5523 25 18C25 17.4872 25.386 17.0645 25.8834 17.0067L26 17H42Z" fill="#000091"/>
<path d="M53 24C53 23.4477 52.5523 23 52 23H26L25.8834 23.0067C25.386 23.0645 25 23.4872 25 24C25 24.5523 25.4477 25 26 25H52L52.1166 24.9933C52.614 24.9355 53 24.5128 53 24Z" fill="#000091"/>
<path d="M46 29C46.5523 29 47 29.4477 47 30C47 30.5128 46.614 30.9355 46.1166 30.9933L46 31H26C25.4477 31 25 30.5523 25 30C25 29.4872 25.386 29.0645 25.8834 29.0067L26 29H46Z" fill="#000091"/>
<path d="M53 36C53 35.4477 52.5523 35 52 35H26L25.8834 35.0067C25.386 35.0645 25 35.4872 25 36C25 36.5523 25.4477 37 26 37H52L52.1166 36.9933C52.614 36.9355 53 36.5128 53 36Z" fill="#000091"/>
<path d="M47 42C47 41.4477 46.5523 41 46 41H26L25.8834 41.0067C25.386 41.0645 25 41.4872 25 42C25 42.5523 25.4477 43 26 43H46L46.1166 42.9933C46.614 42.9355 47 42.5128 47 42Z" fill="#000091"/>
<path fill-rule="evenodd" clip-rule="evenodd" d="M20 11H58C58.5523 11 59 11.4477 59 12V66C59 66.5523 58.5523 67 58 67H20C19.4477 67 19 66.5523 19 66V12C19 11.4477 19.4477 11 20 11ZM57 65V13H21V65H57Z" fill="#000091"/>
<path d="M62 19C62.5128 19 62.9355 19.386 62.9933 19.8834L63 20V70C63 70.5128 62.614 70.9355 62.1166 70.9933L62 71H28C27.4477 71 27 70.5523 27 70C27 69.4872 27.386 69.0645 27.8834 69.0067L28 69H61V20C61 19.4872 61.386 19.0645 61.8834 19.0067L62 19Z" fill="#000091"/>
</svg>
